<svg width="17" height="24" viewBox="0 0 17 24" fill="none" xmlns="http://www.w3.org/2000/svg">
<path d="M16.9167 8.99904C16.9176 7.60873 16.567 6.24076 15.8977 5.02219C15.2283 3.80362 14.2618 2.77397 13.088 2.02889C11.9142 1.2838 10.5712 0.847445 9.18358 0.760347C7.796 0.673249 6.40891 0.938235 5.15116 1.53069C3.8934 2.12315 2.80576 3.02386 1.98927 4.14917C1.17279 5.27447 0.653928 6.58787 0.480894 7.96737C0.30786 9.34687 0.486262 10.7477 0.999528 12.0398C1.5128 13.3319 2.34428 14.4734 3.41675 15.3581V22.499C3.41666 22.6269 3.44928 22.7528 3.51152 22.8645C3.57375 22.9762 3.66353 23.0702 3.77232 23.1375C3.88112 23.2048 4.0053 23.2431 4.13308 23.2488C4.26086 23.2546 4.38799 23.2275 4.50237 23.1703L8.66675 21.0928L12.8321 23.175C12.9365 23.2249 13.051 23.2503 13.1668 23.249C13.3657 23.249 13.5564 23.17 13.6971 23.0294C13.8377 22.8887 13.9168 22.698 13.9168 22.499V15.3581C14.8551 14.5853 15.6108 13.6143 16.1295 12.5148C16.6481 11.4153 16.917 10.2147 16.9167 8.99904ZM1.91675 8.99904C1.91675 7.66402 2.31263 6.35897 3.05433 5.24894C3.79603 4.13891 4.85023 3.27374 6.08364 2.76285C7.31704 2.25196 8.67424 2.11829 9.98361 2.37874C11.293 2.63919 12.4957 3.28206 13.4397 4.22607C14.3837 5.17007 15.0266 6.37281 15.2871 7.68218C15.5475 8.99155 15.4138 10.3488 14.9029 11.5822C14.392 12.8156 13.5269 13.8698 12.4168 14.6115C11.3068 15.3532 10.0018 15.749 8.66675 15.749C6.87715 15.7471 5.16141 15.0353 3.89597 13.7698C2.63053 12.5044 1.91873 10.7886 1.91675 8.99904ZM12.4168 21.2859L9.00144 19.5787C8.89724 19.5266 8.78233 19.4994 8.66581 19.4994C8.5493 19.4994 8.43438 19.5266 8.33019 19.5787L4.91675 21.2859V16.3462C6.07772 16.9396 7.36293 17.249 8.66675 17.249C9.97057 17.249 11.2558 16.9396 12.4168 16.3462V21.2859ZM8.66675 14.249C9.7051 14.249 10.7201 13.9411 11.5835 13.3643C12.4469 12.7874 13.1198 11.9674 13.5171 11.0081C13.9145 10.0488 14.0184 8.99322 13.8159 7.97482C13.6133 6.95642 13.1133 6.02095 12.3791 5.28673C11.6448 4.5525 10.7094 4.05249 9.69097 3.84992C8.67257 3.64734 7.61697 3.75131 6.65766 4.14867C5.69835 4.54603 4.87841 5.21894 4.30153 6.0823C3.72466 6.94565 3.41675 7.96069 3.41675 8.99904C3.41824 10.391 3.97184 11.7255 4.95608 12.7097C5.94033 13.6939 7.27482 14.2476 8.66675 14.249ZM8.66675 5.24904C9.40843 5.24904 10.1335 5.46897 10.7501 5.88103C11.3668 6.29308 11.8475 6.87875 12.1313 7.56398C12.4151 8.2492 12.4894 9.0032 12.3447 9.73063C12.2 10.4581 11.8428 11.1262 11.3184 11.6507C10.794 12.1751 10.1258 12.5323 9.39834 12.677C8.67091 12.8217 7.91691 12.7474 7.23169 12.4636C6.54646 12.1798 5.96079 11.6991 5.54874 11.0824C5.13668 10.4657 4.91675 9.74072 4.91675 8.99904C4.91675 8.00448 5.31184 7.05065 6.0151 6.34739C6.71836 5.64413 7.67219 5.24904 8.66675 5.24904Z" fill="#1F1F1F"/>
</svg>
